<svg xmlns="http://www.w3.org/2000/svg" viewBox="0 0 1200 1200">
    <g id="_レイヤー_2" data-name="レイヤー 2">
        <rect style="fill:#231815;" x="-12.03" y="-12.03" width="1224.07" height="1224.07" rx="4.5" ry="4.5"/>
        <path style="fill:#231815;" d="M1202.53-2.53H-2.53v1205.06h1205.06V-2.53Z"/>
    </g>
    <g id="_レイヤー_1" data-name="レイヤー 1">
        <path style="fill:#fff;" d="m412.71 564.07-29.07 86.67-28.81-86.67h-28.2l-23.64 136.55h29.34l13.17-75.76 25.26 75.76h25.57l25.48-75.74 12.86 75.74h29.13l-22.56-134.54-.34-2.01h-28.19zM543.12 560.76c-12.68 0-24.68 3.23-35.67 9.59-10.98 6.37-19.74 15.11-26.02 26-6.28 10.89-9.46 22.98-9.46 35.95 0 19.36 6.83 36.31 20.29 50.38 13.49 14.1 30.66 21.25 51.03 21.25s36.24-6.96 49.88-20.68c13.64-13.72 20.55-30.71 20.55-50.51s-7-37.14-20.82-51.04c-13.82-13.9-30.57-20.95-49.79-20.95Zm28.84 101.92c-7.97 8.19-17.34 12.16-28.66 12.16-9.9 0-18.8-3.16-26.45-9.4-9.96-8.07-14.79-18.76-14.79-32.69 0-12.36 3.96-22.67 11.77-30.64 7.91-8.07 17.4-11.99 29.02-11.99s20.99 4.02 29.01 12.3c7.94 8.18 11.96 18.33 11.96 30.16s-3.99 22.02-11.87 30.11ZM660.4 564.07h-27.77v136.55h29.9v-80.7l52.57 80.7h27.84V564.07h-29.9v80.96l-52.64-80.96z"/>
        <path style="fill:#fff;" d="M542.81 612.63c-10.48 0-19.01 8.53-19.01 19.01s8.53 19.01 19.01 19.01 19.01-8.53 19.01-19.01-8.53-19.01-19.01-19.01ZM833.12 612.63c-10.48 0-19.01 8.53-19.01 19.01s8.53 19.01 19.01 19.01 19.01-8.53 19.01-19.01-8.53-19.01-19.01-19.01Z"/>
        <path style="fill:#fff;" d="M1009.27 796.79c-30.19 0-55.39 21.71-60.86 50.33H211.32l.2-372.23 388.7-173.57 388.69 173.57v138.67h-87.89c-3.11-11.97-9.26-22.64-18.43-31.86-13.82-13.9-30.57-20.95-49.79-20.95-12.68 0-24.68 3.23-35.67 9.59-10.98 6.37-19.74 15.11-26.02 26-6.28 10.89-9.46 22.98-9.46 35.95 0 19.36 6.83 36.31 20.29 50.38 13.49 14.1 30.66 21.25 51.03 21.25s36.24-6.96 49.88-20.68c8.4-8.45 14.24-18.15 17.49-28.97h108.91c11.24 0 20.36-9.12 20.36-20.36V461.67c0-8.03-4.72-15.32-12.06-18.59L608.5 260.42a20.345 20.345 0 0 0-16.6 0L182.85 443.08a20.368 20.368 0 0 0-12.06 18.58l-.22 405.8a20.37 20.37 0 0 0 20.36 20.37h763.61c10.43 19.55 31.04 32.9 54.71 32.9 34.17 0 61.97-27.8 61.97-61.97s-27.8-61.97-61.97-61.97ZM861.65 662.68c-7.97 8.19-17.34 12.16-28.66 12.16-9.9 0-18.8-3.16-26.45-9.4-9.96-8.07-14.79-18.76-14.79-32.69 0-12.36 3.96-22.67 11.77-30.64 7.91-8.07 17.4-11.99 29.02-11.99s20.99 4.02 29.01 12.3c7.94 8.18 11.96 18.33 11.96 30.16s-3.99 22.02-11.87 30.11Zm147.62 230.8c-19.17 0-34.71-15.54-34.71-34.71s15.54-34.71 34.71-34.71 34.71 15.54 34.71 34.71-15.54 34.71-34.71 34.71Z"/>
    </g>
</svg>
